#define cyclist-only_width 55
#define cyclist-only_height 55
static unsigned char cyclist-only_bits[] = {
  0x00, 0x00, 0x00, 0x00, 0x00, 0x00, 0x00, 0x00, 0x00, 0x00, 0x00, 0x00,
  0x00, 0x00, 0x00, 0x00, 0x00, 0x00, 0x00, 0x00, 0x00, 0x00, 0x00, 0x00,
  0x00, 0x00, 0x00, 0x00, 0x00, 0x00, 0x00, 0x00, 0x00, 0x00, 0x00, 0x00,
  0x00, 0x00, 0x00, 0x00, 0x00, 0x00, 0x00, 0x00, 0x78, 0x00, 0x00, 0x00,
  0x00, 0x00, 0x00, 0x07, 0x00, 0x00, 0x00, 0x00, 0x00, 0x00, 0x00, 0x00,
  0x00, 0x00, 0x00, 0x00, 0x02, 0x04, 0x00, 0x00, 0x00, 0x00, 0x00, 0x80,
  0x00, 0x00, 0x28, 0x00, 0x00, 0x00, 0x40, 0x00, 0x00, 0x30, 0x00, 0x00,
  0x00, 0x28, 0x00, 0x00, 0x38, 0x00, 0x00, 0x00, 0x16, 0x00, 0x00, 0x2c,
  0x00, 0x00, 0x80, 0x0d, 0x00, 0x00, 0x34, 0x00, 0x00, 0x00, 0x00, 0x08,
  0x00, 0x08, 0x00, 0x00, 0x00, 0xc0, 0x01, 0x00, 0x00, 0x02, 0x00, 0x00,
  0xb0, 0x00, 0x00, 0x00, 0x04, 0x00, 0x78, 0x3e, 0x00, 0x00, 0x00, 0x0e,
  0x00, 0xca, 0x19, 0x00, 0x00, 0x00, 0x18, 0x00, 0xf8, 0x01, 0x00, 0x00,
  0x00, 0x30, 0x00, 0x00, 0x00, 0x00, 0x00, 0x00, 0x60, 0x00, 0x00, 0x00,
  0x00, 0x00, 0x00, 0x30, 0x00, 0x00, 0x00, 0x00, 0x00, 0x00, 0x18, 0x00,
  0x00, 0x00, 0x06, 0x00, 0x00, 0x04, 0x00, 0x00, 0xa0, 0x00, 0x00, 0x80,
  0x0f, 0x00, 0x00, 0x60, 0x00, 0x00, 0x00, 0x01, 0x00, 0x78, 0x1e, 0x00,
  0x00, 0x00, 0x00, 0x00, 0xc8, 0x07, 0x00, 0x00, 0x00, 0x00, 0x00, 0xfa,
  0x06, 0x00, 0x00, 0x00, 0x00, 0x00, 0x00, 0x00, 0x00, 0x00, 0x00, 0x00,
  0x00, 0x00, 0x80, 0x03, 0x02, 0x00, 0x00, 0x00, 0x00, 0x80, 0x02, 0x06,
  0x00, 0x00, 0x00, 0x00, 0x80, 0x05, 0x18, 0x00, 0x00, 0x00, 0x00, 0x00,
  0x03, 0x30, 0x00, 0x00, 0x00, 0x00, 0x00, 0x0d, 0x60, 0x20, 0x00, 0x00,
  0x00, 0x00, 0x0e, 0x00, 0x38, 0x00, 0x00, 0x00, 0x00, 0x0e, 0xc0, 0x0c,
  0x00, 0x00, 0x00, 0x00, 0x14, 0xc0, 0x06, 0x00, 0x00, 0x00, 0x00, 0x38,
  0x80, 0x01, 0x00, 0x00, 0x00, 0x00, 0x38, 0x00, 0x00, 0x00, 0x00, 0x00,
  0x00, 0x78, 0x00, 0x00, 0x00, 0x00, 0x00, 0x00, 0x50, 0x00, 0x00, 0x00,
  0x00, 0x00, 0x00, 0x70, 0x00, 0x00, 0x00, 0x00, 0x00, 0x00, 0x40, 0x00,
  0x00, 0x00, 0x00, 0x00, 0x00, 0x80, 0x00, 0x00, 0x00, 0x00, 0x00, 0x00,
  0x80, 0x03, 0x00, 0x00, 0x00, 0x00, 0x00, 0x00, 0x0d, 0x00, 0x00, 0x00,
  0x00, 0x00, 0x00, 0x17, 0x00, 0x00, 0x00, 0x00, 0x00, 0x00, 0x00, 0x00,
  0x00, 0x00, 0x00, 0x00, 0x00, 0x00, 0x00, 0x00, 0x00, 0x00, 0x00, 0x00,
  0x00, 0x00, 0x00, 0x00, 0x00, 0x00, 0x00, 0x00, 0x00, 0x00, 0x00, 0x00,
  0x00, 0x00, 0x00, 0x00, 0x00, 0x00, 0x00, 0x00, 0x00, 0x00, 0x00, 0x00,
  0x00, };
